<svg xmlns="http://www.w3.org/2000/svg" width="800" height="600" viewBox="0 0 800 600">
  <defs>
    <linearGradient id="bg" x1="0" x2="1" y1="0" y2="1">
      <stop offset="0" stop-color="#FFFFFF"/>
      <stop offset="1" stop-color="#F6F3EC"/>
    </linearGradient>
    <filter id="shadow" x="-20%" y="-20%" width="140%" height="140%">
      <feDropShadow dx="0" dy="8" stdDeviation="12" flood-opacity="0.15"/>
    </filter>
  </defs>
  <rect width="100%" height="100%" fill="url(#bg)"/>
  <g filter="url(#shadow)" transform="translate(250,60)">
    <rect rx="36" ry="36" x="0" y="0" width="300" height="520" fill="#FFFFFF" stroke="#E6E2DA" stroke-width="2"/>
    <rect x="30" y="100" width="240" height="200" rx="8" ry="8" fill="#F3EFE7" stroke="#E4DAC7"/>
    <rect x="40" y="110" width="220" height="180" rx="4" ry="4" fill="#D8AF4B"/>
    <rect x="50" y="120" width="200" height="160" fill="#FFFFFF"/>
    <rect x="50" y="300" width="200" height="14" rx="7" fill="#111111" opacity="0.06"/>
    <rect x="40" y="360" width="220" height="36" rx="9" fill="#EDE9E0"/>
    <rect x="60" y="364" width="60" height="28" rx="6" fill="#111111" opacity="0.08"/>
    <rect x="128" y="364" width="60" height="28" rx="6" fill="#D8AF4B" opacity="0.5"/>
    <rect x="40" y="410" width="220" height="44" rx="10" fill="#1A73E8"/>
    <text x="150" y="438" text-anchor="middle" font-family="Inter, Arial" font-size="16" font-weight="700" fill="#FFFFFF">Add to Cart</text>
  </g>
</svg>